<svg xmlns="http://www.w3.org/2000/svg" viewBox="0 0 1440 320">
        <path
          fill="#ffffff"
          fill-opacity="1"
          d="M0,32L0,128L84.7,128L84.7,192L169.4,192L169.4,32L254.1,32L254.1,64L338.8,64L338.8,192L423.5,192L423.5,288L508.2,288L508.2,128L592.9,128L592.9,128L677.6,128L677.6,160L762.4,160L762.4,96L847.1,96L847.1,64L931.8,64L931.8,288L1016.5,288L1016.5,32L1101.2,32L1101.2,128L1185.9,128L1185.9,64L1270.6,64L1270.6,224L1355.3,224L1355.3,288L1440,288L1440,320L1355.3,320L1355.3,320L1270.6,320L1270.6,320L1185.9,320L1185.9,320L1101.2,320L1101.2,320L1016.5,320L1016.5,320L931.8,320L931.8,320L847.1,320L847.1,320L762.4,320L762.4,320L677.6,320L677.6,320L592.9,320L592.9,320L508.2,320L508.2,320L423.5,320L423.5,320L338.8,320L338.8,320L254.1,320L254.1,320L169.4,320L169.4,320L84.7,320L84.7,320L0,320L0,320Z"
        ></path>
</svg>